<svg xmlns="http://www.w3.org/2000/svg" width="95" height="20" viewBox="0 0 121.92 23.5"><defs><style>.cls-1{fill:#71a2ff;}</style></defs><title>Preparity_logo</title><path class="cls-1" d="M0,0H6.9c4.21,0,6,2.44,6,6.67,0,4.61-2.5,6.38-6.3,6.38H4.26V23.5H0ZM5.92,10c2.35,0,3-.9,3-3.4S8.56,3,5.92,3H4.26v7Z"/><path class="cls-1" d="M15.28,0h5.66c4.7,0,7.37,1.51,7.37,6.24,0,2.81-.7,4.78-2.9,5.68L28.68,23.5H24.39L21.58,12.73h-2V23.5H15.28Zm5.63,10.07c2.47,0,3.37-1.08,3.37-3.6s-.67-3.54-3.14-3.54H19.55v7.14Z"/><path class="cls-1" d="M31.55,0h9.86V3H35.82V9.78h4.4v3h-4.4v7.81h5.65V23.5H31.55Z"/><path class="cls-1" d="M44,0h6.91c4.2,0,6,2.44,6,6.67,0,4.61-2.49,6.38-6.29,6.38H48.23V23.5H44Zm5.92,10c2.35,0,3-.9,3-3.4S52.52,3,49.88,3H48.23v7Z"/><path class="cls-1" d="M61.54,0h4.58l4.7,23.5h-4l-.93-5.43H61.83l-1,5.43h-4Zm3.91,15.34L63.86,5.48l-1.6,9.86Z"/><path class="cls-1" d="M73.17,0h5.65c4.7,0,7.37,1.51,7.37,6.24,0,2.81-.7,4.78-2.9,5.68L86.57,23.5h-4.3L79.46,12.73h-2V23.5H73.17Zm5.62,10.07c2.47,0,3.37-1.08,3.37-3.6S81.49,2.93,79,2.93h-1.6v7.14Z"/><path class="cls-1" d="M89.55,0h4.24V23.5H89.55Z"/><path class="cls-1" d="M99.76,3.16H96V0h11.69V3.16h-3.66V23.5H99.76Z"/><path class="cls-1" d="M113.13,14.53,108.37,0h4l2.9,9.31L118,0h3.92l-4.7,14.53v9h-4.09Z"/></svg>
