<svg xmlns="http://www.w3.org/2000/svg" width="26" height="23" viewBox="0 0 26 23"><path d="M26,5.5V3.2A3.21,3.21,0,0,0,22.7,0H3.3A3.21,3.21,0,0,0,0,3.2V5.4H26Z" fill="#6895eb"/><path d="M0,7.8v12A3.21,3.21,0,0,0,3.3,23H22.7A3.21,3.21,0,0,0,26,19.8V7.8H0ZM8.357,18h-3.2a1.2,1.2,0,1,1,0-2.4h3.2A1.174,1.174,0,0,1,9.6,16.8,1.236,1.236,0,0,1,8.357,18Zm3.2-4.3h-6.4a1.2,1.2,0,1,1,0-2.4h6.4a1.174,1.174,0,0,1,1.238,1.2A1.236,1.236,0,0,1,11.556,13.7Zm8.563,4.4a1.2,1.2,0,1,1,1.238-1.2A1.235,1.235,0,0,1,20.119,18.1Z" fill="#6895eb"/></svg>