<svg xmlns="http://www.w3.org/2000/svg" width="24" height="24" viewBox="0 0 24 24"><circle cx="12" cy="12" r="12" fill="#72d68d"/><path d="M17.835,4.253,9.529.062a.68.68,0,0,0-.748,0L.474,4.253h0A.073.073,0,0,0,.4,4.328.073.073,0,0,0,.324,4.4L.25,4.477a.073.073,0,0,1-.075.075c0,.075-.075.075-.075.15v6.286a.83.83,0,0,0,.823.823.83.83,0,0,0,.823-.823V6.273L2.869,6.8v3.592a.823.823,0,0,0,.449.748L8.93,13.906a.561.561,0,0,0,.374.075.675.675,0,0,0,.374-.075l2.844-1.422c3.218-1.571,3.367-1.646,3.293-2.17V6.8L18.06,5.675A.719.719,0,0,0,18.509,5,7.492,7.492,0,0,0,17.835,4.253ZM13.944,9.865c-1.048.524-3.816,1.871-4.864,2.395L4.216,9.865V7.62l4.49,2.245a.675.675,0,0,0,.374.075.675.675,0,0,0,.374-.075l4.49-2.245Zm.6-4.265c-.075,0-.075.075-.15.075L9.155,8.294,3.916,5.675,3.842,5.6,2.569,5,9.08,1.709,15.665,5Z" transform="translate(2.901 5.051)" fill="#fff"/></svg>