<svg id="Слой_1" data-name="Слой 1" xmlns="http://www.w3.org/2000/svg" viewBox="0 0 25.13 20"><defs><style>.cls-1{fill:#c0d4e2;}</style></defs><title>Invited_friend</title><g id="Group_1343" data-name="Group 1343"><g id="Group_1338" data-name="Group 1338"><g id="Group_1337" data-name="Group 1337"><ellipse id="Ellipse_257" data-name="Ellipse 257" class="cls-1" cx="9.85" cy="5.13" rx="4.72" ry="5.13"/></g></g><g id="Group_1340" data-name="Group 1340"><g id="Group_1339" data-name="Group 1339"><path id="Path_546" data-name="Path 546" class="cls-1" d="M19.49,15.49A12.78,12.78,0,0,1,1.48,17,12.93,12.93,0,0,1,0,15.49a9.94,9.94,0,0,1,1.64-1.33,13.85,13.85,0,0,1,8.1-2.57,13.83,13.83,0,0,1,8.1,2.57A10,10,0,0,1,19.49,15.49Z"/></g></g><g id="Group_1342" data-name="Group 1342"><g id="Group_1341" data-name="Group 1341"><path id="Path_547" data-name="Path 547" class="cls-1" d="M25.13,10.1H22.36v2.67H20.72V10.1H18V8.56h2.77V5.9h1.64V8.56h2.77Z"/></g></g></g></svg>