<svg xmlns="http://www.w3.org/2000/svg" width="20" height="20" viewBox="0 0 20 20">
  <defs>
    <style>
      .cls-1 {
        fill: #c0d4e2;
      }
    </style>
  </defs>
  <path id="Path_131" data-name="Path 131" class="cls-1" d="M18.616,0H1.384A1.39,1.39,0,0,0,0,1.386v13.6a1.385,1.385,0,0,0,1.384,1.386h2L6.84,20,10.3,16.372h8.32A1.385,1.385,0,0,0,20,14.986V1.386A1.39,1.39,0,0,0,18.616,0ZM4.936,9.563A1.354,1.354,0,1,1,6.288,8.21,1.356,1.356,0,0,1,4.936,9.563Zm5.064,0A1.354,1.354,0,1,1,11.352,8.21,1.356,1.356,0,0,1,10,9.563Zm5.064,0A1.354,1.354,0,1,1,16.416,8.21,1.356,1.356,0,0,1,15.064,9.563Z"/>
</svg>
