<svg xmlns="http://www.w3.org/2000/svg" width="23" height="23" viewBox="0 0 23 23"><path d="M19.3,0H3.657A3.645,3.645,0,0,0,0,3.664V19.3A3.654,3.654,0,0,0,3.657,23h15.6a3.654,3.654,0,0,0,3.7-3.664v-.244s-5.933-2.483-8.94-3.949c-2.032,2.442-4.633,3.989-7.314,3.989-4.551,0-6.1-3.989-3.982-6.635a4.634,4.634,0,0,1,2.519-1.425c1.951-.488,5.039.285,7.924,1.262a20.676,20.676,0,0,0,1.3-3.175H5.527v-.9h4.633V6.635H4.592V5.7h5.567V3.379a.4.4,0,0,1,.406-.407h2.276V5.7h5.527v.9H12.841V8.223h4.511a16.978,16.978,0,0,1-1.91,4.844c1.382.488,2.6.936,3.535,1.3A28.25,28.25,0,0,0,23,15.55V3.664A3.706,3.706,0,0,0,19.3,0Z" fill="#cbcbcb"/><path d="M7.455,30.926c-1.788,1.506-.731,4.234,2.885,4.234a7.871,7.871,0,0,0,5.811-3.338c-2.316-1.1-4.307-1.873-6.461-1.669a4.476,4.476,0,0,0-2.235.773Z" transform="translate(-3.92 -17.859)" fill="#cbcbcb"/></svg>