<svg xmlns="http://www.w3.org/2000/svg" width="25" height="25" viewBox="0 0 25 25"><g transform="translate(-43 -332)"><g transform="translate(43 332)"><path d="M14.59,3A7.413,7.413,0,0,1,22,10.41V14.6a7.42,7.42,0,0,1-7.41,7.41H3V10.41A7.413,7.413,0,0,1,10.41,3h4.18m0-3H10.4A10.407,10.407,0,0,0,0,10.41V25H14.59A10.409,10.409,0,0,0,25,14.59V10.4A10.407,10.407,0,0,0,14.59,0Z" fill="#fdc91d"/></g><g transform="translate(51 337.049)"><path d="M8.523,12.31a5.453,5.453,0,0,1-2.841,1.082v1.759H4.058V13.528a6.319,6.319,0,0,1-2.3-.406A5.4,5.4,0,0,1,0,12.175l.947-2.029a2.807,2.807,0,0,0,1.353.812,4.166,4.166,0,0,0,1.759.406V8.658a6.177,6.177,0,0,1-1.894-.676A4.859,4.859,0,0,1,.812,7.034,2.5,2.5,0,0,1,.271,5.276a2.967,2.967,0,0,1,.947-2.3A4.6,4.6,0,0,1,4.058,1.759V0H5.682V1.759a7.092,7.092,0,0,1,3.247.947L8.117,4.735a8.6,8.6,0,0,0-2.435-.812V6.629a17.242,17.242,0,0,1,1.894.541,4.859,4.859,0,0,1,1.353.947,3.106,3.106,0,0,1,.541,1.894A3.837,3.837,0,0,1,8.523,12.31ZM3.111,5.817a6.6,6.6,0,0,0,.947.406v-2.3a2.18,2.18,0,0,0-.947.541.981.981,0,0,0,0,1.353Zm3.382,5.005a.744.744,0,0,0,.406-.676c0-.271-.135-.406-.406-.676a2.2,2.2,0,0,0-.812-.406v2.3A1.242,1.242,0,0,0,6.493,10.822Z" fill="#fdc91d"/></g></g></svg>