<svg xmlns="http://www.w3.org/2000/svg" xmlns:xlink="http://www.w3.org/1999/xlink" id="Group_1340" data-name="Group 1340" width="730.05" height="768" viewBox="0 0 730.05 768">
    <defs>
        <linearGradient id="linear-gradient" x1="-0.35" y1="0.993" x2="0.579" y2="0.448" gradientUnits="objectBoundingBox">
            <stop offset="0.001" stop-color="#6f9ffb"/>
            <stop offset="1" stop-color="#b6f0ff"/>
        </linearGradient>
        <linearGradient id="linear-gradient-2" x1="-1.501" y1="5.124" x2="0.781" y2="0.027" xlink:href="#linear-gradient"/>
    </defs>
    <rect id="Rectangle_1315" data-name="Rectangle 1315" width="730" height="768" fill="none"/>
    <path id="Path_440" data-name="Path 440" d="M0,762.769V768H5.338Q2.557,765.452,0,762.769Z" transform="translate(0 -2)" fill="rgba(0,0,0,0)"/>
    <g id="Group_1309" data-name="Group 1309">
        <path id="Path_441" data-name="Path 441" d="M95.351,41.94a58.048,58.048,0,0,1-17.4,95.8,55.455,55.455,0,0,1-1.563,11.622,58.309,58.309,0,0,1,6.944,33.019A58.2,58.2,0,0,1,96.081,221.7a95.046,95.046,0,0,1,80.428,81.7,81.2,81.2,0,0,1,61.335,114.932,81.128,81.128,0,0,1,8.876,17.946,81.2,81.2,0,0,1,54.288,147.208,51,51,0,0,1,11.8,15.994,51.308,51.308,0,0,1,50.613,54.743q3.686,1.908,7.155,4.153A111.526,111.526,0,0,1,415.152,675q4.816,3.093,9.208,6.585a81.243,81.243,0,0,1,70.176-27.817,71.129,71.129,0,0,0-12.789-6.891,99.47,99.47,0,0,0-81.571-81.658,99.429,99.429,0,0,0-56.668-179.945,99.351,99.351,0,0,0-14.917-19.458A99.437,99.437,0,0,0,196.207,226.555a62.442,62.442,0,0,0-11.189-21.617,62.844,62.844,0,0,0-36.614-86.66,136.477,136.477,0,0,0,8.983-66.631q-.793-6.964-2.255-13.677A99.2,99.2,0,0,0,210.793,0H97.841A57.986,57.986,0,0,1,95.351,41.94Z" fill="url(#linear-gradient)"/>
        <path id="Path_442" data-name="Path 442" d="M680,745.4A71.068,71.068,0,0,0,564.367,713.58a81.008,81.008,0,0,1-4.5,54.42H730.05A71.07,71.07,0,0,0,680,745.4Z" fill="url(#linear-gradient-2)"/>
    </g>
    <path id="Path_451" data-name="Path 451" d="M671.444,758.3a63.7,63.7,0,0,1-1.269,9.7h8.3a53.23,53.23,0,0,0-26.865-59A63.033,63.033,0,0,1,671.444,758.3Z" fill="#d9f7ff"/>
</svg>