<svg xmlns="http://www.w3.org/2000/svg" width="25" height="25" viewBox="0 0 26 26"><g transform="translate(-126 -567)"><rect width="26" height="26" rx="1" transform="translate(126 567)" fill="#dc4a38"/><g transform="translate(131 571)"><path d="M67.524,50.173a7.886,7.886,0,0,0-.176-1.773H59.2v3.224h4.778A4.237,4.237,0,0,1,62.2,54.438l-.015.1,2.579,1.993.176.015a8.454,8.454,0,0,0,2.579-6.375" transform="translate(-50.524 -41.307)" fill="#fff"/><path d="M14.138,77.861a8.312,8.312,0,0,0,5.745-2.1l-2.741-2.125a5.114,5.114,0,0,1-3,.865A5.224,5.224,0,0,1,9.2,70.9l-.1.015L6.429,72.981l-.029.1a8.644,8.644,0,0,0,7.738,4.778" transform="translate(-5.462 -60.509)" fill="#fff"/><path d="M3.737,37.957a5.287,5.287,0,0,1-.015-3.429V34.41L1.011,32.3l-.088.044a8.691,8.691,0,0,0,0,7.8l2.814-2.184" transform="translate(0 -27.566)" fill="#fff"/><path d="M14.053,3.356a4.833,4.833,0,0,1,3.356,1.29l2.447-2.389A8.368,8.368,0,0,0,14.053,0,8.683,8.683,0,0,0,6.3,4.778L9.1,6.961a5.257,5.257,0,0,1,4.953-3.605" transform="translate(-5.377)" fill="#fff"/></g></g></svg>