<svg xmlns="http://www.w3.org/2000/svg" width="19.473" height="23" viewBox="0 0 19.473 23"><g transform="translate(0.008)"><path d="M5.542,22.21l.417-2.53H.81L3.756,1A.238.238,0,0,1,3.846.84.248.248,0,0,1,3.975.79h7.142c2.371,0,3.968.486,4.871,1.468a3.314,3.314,0,0,1,.774,1.458,5.418,5.418,0,0,1,0,1.984v.566l.4.228a2.807,2.807,0,0,1,.813.625,2.857,2.857,0,0,1,.655,1.468,6.172,6.172,0,0,1-.089,2.143,7.789,7.789,0,0,1-.883,2.431,4.96,4.96,0,0,1-1.389,1.518,5.5,5.5,0,0,1-1.875.843,9.274,9.274,0,0,1-2.331.278H11.5a1.7,1.7,0,0,0-1.091.4,1.627,1.627,0,0,0-.565.992v.228l-.7,4.455v.169a.129.129,0,0,1-.05.089.109.109,0,0,1-.069,0Z" transform="translate(0)" fill="#ebebeb"/><path d="M17.69,5.89a.929.929,0,0,1-.07.42c-.95,4.87-4.2,6.56-8.35,6.56H7.16a1,1,0,0,0-1,.87L5.06,20.6l-.3,1.94a.54.54,0,0,0,.53.63H9a.91.91,0,0,0,.89-.76v-.2l.71-4.47.05-.25a.89.89,0,0,1,.89-.76h.56c3.63,0,6.47-1.47,7.3-5.74a4.86,4.86,0,0,0-.75-4.31,3.41,3.41,0,0,0-.96-.79Z" transform="translate(-0.144 -0.17)" fill="#dbdbdb"/><path d="M16.7,5.49l-.45-.12-.47-.09a12.11,12.11,0,0,0-1.87-.13H8.27a.86.86,0,0,0-.39.09.9.9,0,0,0-.5.67l-1.2,7.6v.23a1,1,0,0,1,1-.87H9.27c4.15,0,7.4-1.69,8.35-6.56a2.628,2.628,0,0,1,.07-.42,4.57,4.57,0,0,0-.78-.33Z" transform="translate(-0.144 -0.06)" fill="#cbcbcb"/><path d="M7.32,5.861a.893.893,0,0,1,.5-.664A.853.853,0,0,1,8.2,5.107H13.8a10.854,10.854,0,0,1,1.855.139,3.522,3.522,0,0,1,.466.089l.446.109.208.069a4.534,4.534,0,0,1,.774.327,4.551,4.551,0,0,0-.992-4.106C15.514.516,13.589,0,11.129,0H3.968a.992.992,0,0,0-.992.863L0,19.706a.615.615,0,0,0,.605.714H5.019L6.13,13.389Z" transform="translate(0 0)" fill="#ebebeb"/></g></svg>