<svg xmlns="http://www.w3.org/2000/svg" width="17" height="17" viewBox="0 0 16 16"><g transform="translate(-541 -1321.999)"><path d="M8,0A8,8,0,1,1,0,8,8,8,0,0,1,8,0Z" transform="translate(541 1321.999)" fill="#c0d4e2"/><path d="M2.168,6.013a1.913,1.913,0,0,1,.1-.636,2.2,2.2,0,0,1,.27-.529,3.472,3.472,0,0,1,.378-.46q.208-.214.436-.428l.308-.31a2.121,2.121,0,0,0,.259-.314,1.444,1.444,0,0,0,.24-.839.989.989,0,0,0-.284-.751,1.061,1.061,0,0,0-.762-.27,1.5,1.5,0,0,0-.988.29,1.748,1.748,0,0,0-.5,1.021L0,2.584A4.46,4.46,0,0,1,.314,1.57,2.537,2.537,0,0,1,.9.749,2.715,2.715,0,0,1,1.821.2,3.819,3.819,0,0,1,3.127,0,3.265,3.265,0,0,1,5.238.618,2.039,2.039,0,0,1,6,2.294,2.68,2.68,0,0,1,5.918,3a2.163,2.163,0,0,1-.221.536,2.426,2.426,0,0,1-.315.421c-.117.127-.239.252-.366.378l-.428.428a3.347,3.347,0,0,0-.352.41,2.028,2.028,0,0,0-.24.428,1.314,1.314,0,0,0-.088.484V6.3H2.168V6.013ZM2.155,7.147H3.9V9.152H2.155Z" transform="translate(546 1325.999)" fill="#fff" fill-rule="evenodd"/></g></svg>